<svg width="104" height="25" viewBox="0 0 104 25" fill="none" xmlns="http://www.w3.org/2000/svg">
<path d="M-6.10352e-05 4.98074V24.1068H2.74557V10.2572H2.92301L8.56371 24.0788H10.8424L16.4831 10.2666H16.6605V24.1068H19.4062V4.98074H15.9041L9.81512 19.8483H9.59098L3.50202 4.98074H-6.10352e-05Z" fill="white"/>
<path d="M30.0478 24.3963C33.1764 24.3963 35.3897 22.8554 36.0247 20.5207L33.3818 20.0444C32.8775 21.3985 31.6635 22.0896 30.0758 22.0896C27.6851 22.0896 26.0788 20.5393 26.0041 17.775H36.2022V16.7851C36.2022 11.602 33.1017 9.57548 29.8517 9.57548C25.8547 9.57548 23.2211 12.62 23.2211 17.0279C23.2211 21.4826 25.8173 24.3963 30.0478 24.3963ZM26.0134 15.6831C26.1255 13.6472 27.601 11.8822 29.8704 11.8822C32.037 11.8822 33.4565 13.4885 33.4659 15.6831H26.0134Z" fill="white"/>
<path d="M50.0494 13.2643C49.4704 11.0323 47.724 9.57548 44.6235 9.57548C41.3829 9.57548 39.0856 11.2845 39.0856 13.8247C39.0856 15.8606 40.3183 17.2147 43.0079 17.8124L45.436 18.3447C46.8182 18.6529 47.4625 19.2693 47.4625 20.1658C47.4625 21.2771 46.2765 22.1456 44.4461 22.1456C42.7744 22.1456 41.7004 21.4265 41.3642 20.0164L38.6653 20.4273C39.1322 22.9675 41.2428 24.3963 44.4648 24.3963C47.9295 24.3963 50.3296 22.5565 50.3296 19.9603C50.3296 17.9338 49.0408 16.6824 46.4072 16.0753L44.1286 15.5524C42.5503 15.1788 41.8685 14.6465 41.8779 13.6753C41.8685 12.5733 43.0639 11.7888 44.6515 11.7888C46.3886 11.7888 47.1917 12.7507 47.5186 13.7126L50.0494 13.2643Z" fill="white"/>
<path d="M60.0957 9.76226H57.154V6.32554H54.3616V9.76226H52.2604V12.0036H54.3616V20.474C54.3523 23.0795 56.3415 24.3403 58.5455 24.2936C59.4327 24.2842 60.0304 24.1161 60.3572 23.9947L59.8529 21.688C59.6661 21.7254 59.3206 21.8094 58.8723 21.8094C57.9665 21.8094 57.154 21.5106 57.154 19.895V12.0036H60.0957V9.76226Z" fill="white"/>
<path d="M69.0727 24.3963C73.1165 24.3963 75.7594 21.4359 75.7594 16.9999C75.7594 12.5359 73.1165 9.57548 69.0727 9.57548C65.029 9.57548 62.3861 12.5359 62.3861 16.9999C62.3861 21.4359 65.029 24.3963 69.0727 24.3963ZM69.0821 22.0522C66.4392 22.0522 65.2064 19.7455 65.2064 16.9906C65.2064 14.2449 66.4392 11.9102 69.0821 11.9102C71.7063 11.9102 72.939 14.2449 72.939 16.9906C72.939 19.7455 71.7063 22.0522 69.0821 22.0522Z" fill="white"/>
<path d="M78.2962 6.57458H79.0682V4.08421H80.4628C80.5189 4.08421 80.5718 4.08421 80.6247 4.0811L81.9695 6.57458H82.866L81.4247 3.94101C82.2372 3.66396 82.617 3.0009 82.617 2.15417C82.617 1.02728 81.9446 0.19923 80.4504 0.19923H78.2962V6.57458ZM79.0682 3.38691V0.884082H80.4255C81.459 0.884082 81.8574 1.38838 81.8574 2.15417C81.8574 2.91996 81.459 3.38691 80.4379 3.38691H79.0682Z" fill="white"/>
<path d="M86.8172 4.61964C86.8172 5.51617 86.1323 5.92708 85.5844 5.92708C84.9743 5.92708 84.5385 5.47882 84.5385 4.78151V1.79307H83.8038V4.83132C83.8038 6.0516 84.4513 6.63684 85.3478 6.63684C86.07 6.63684 86.5432 6.25083 86.7673 5.76521H86.8172V6.57458H87.5518V1.79307H86.8172V4.61964Z" fill="white"/>
<path d="M92.2843 2.86393C92.0539 2.1853 91.5372 1.73081 90.5909 1.73081C89.5822 1.73081 88.8351 2.30359 88.8351 3.11296C88.8351 3.77291 89.2274 4.21495 90.1052 4.42041L90.9021 4.60719C91.3847 4.71925 91.6119 4.94961 91.6119 5.27959C91.6119 5.6905 91.1761 6.0267 90.4912 6.0267C89.8904 6.0267 89.5138 5.76832 89.383 5.25468L88.6857 5.42901C88.8569 6.24149 89.5262 6.6742 90.5037 6.6742C91.615 6.6742 92.3715 6.06717 92.3715 5.24223C92.3715 4.57606 91.9543 4.15581 91.1014 3.94724L90.3916 3.77291C89.8251 3.63283 89.5698 3.44294 89.5698 3.07561C89.5698 2.6647 90.0056 2.36585 90.5909 2.36585C91.2321 2.36585 91.4967 2.72073 91.6244 3.05071L92.2843 2.86393Z" fill="white"/>
<path d="M96.8643 2.86393C96.6339 2.1853 96.1171 1.73081 95.1708 1.73081C94.1622 1.73081 93.4151 2.30359 93.4151 3.11296C93.4151 3.77291 93.8073 4.21495 94.6852 4.42041L95.4821 4.60719C95.9646 4.71925 96.1919 4.94961 96.1919 5.27959C96.1919 5.6905 95.756 6.0267 95.0712 6.0267C94.4704 6.0267 94.0937 5.76832 93.963 5.25468L93.2657 5.42901C93.4369 6.24149 94.1062 6.6742 95.0836 6.6742C96.195 6.6742 96.9514 6.06717 96.9514 5.24223C96.9514 4.57606 96.5343 4.15581 95.6813 3.94724L94.9716 3.77291C94.405 3.63283 94.1497 3.44294 94.1497 3.07561C94.1497 2.6647 94.5856 2.36585 95.1708 2.36585C95.8121 2.36585 96.0767 2.72073 96.2043 3.05071L96.8643 2.86393Z" fill="white"/>
<path d="M98.0573 6.57458H98.792V1.79307H98.0573V6.57458ZM98.4308 0.996149C98.7172 0.996149 98.9538 0.772015 98.9538 0.498074C98.9538 0.224134 98.7172 0 98.4308 0C98.1445 0 97.9079 0.224134 97.9079 0.498074C97.9079 0.772015 98.1445 0.996149 98.4308 0.996149Z" fill="white"/>
<path d="M101.545 6.68665C102.379 6.68665 102.815 6.23838 102.964 5.92708H103.001V6.57458H103.736V3.42426C103.736 1.90513 102.578 1.73081 101.968 1.73081C101.246 1.73081 100.424 1.97985 100.05 2.85148L100.748 3.10051C100.91 2.75186 101.292 2.37831 101.993 2.37831C102.668 2.37831 103.001 2.7363 103.001 3.34955V3.37445C103.001 3.72933 102.64 3.6982 101.769 3.81027C100.882 3.92545 99.9134 4.12156 99.9134 5.21733C99.9134 6.15122 100.636 6.68665 101.545 6.68665ZM101.657 6.0267C101.071 6.0267 100.648 5.76521 100.648 5.25468C100.648 4.69435 101.159 4.52002 101.731 4.44531C102.043 4.40796 102.877 4.3208 103.001 4.17137V4.84377C103.001 5.44146 102.528 6.0267 101.657 6.0267Z" fill="white"/>
</svg>
